<?xml version="1.0" standalone="no"?>
<!DOCTYPE svg PUBLIC "-//W3C//DTD SVG 20010904//EN"
 "http://www.w3.org/TR/2001/REC-SVG-20010904/DTD/svg10.dtd">
<svg version="1.0" xmlns="http://www.w3.org/2000/svg"
 width="1212.000000pt" height="1280.000000pt" viewBox="0 0 1212.000000 1280.000000"
 preserveAspectRatio="xMidYMid meet">
<metadata>
Created by potrace 1.15, written by Peter Selinger 2001-2017
</metadata>
<g transform="translate(0.000000,1280.000000) scale(0.100000,-0.100000)"
fill="#000000" stroke="none">
<path d="M199 12772 c-64 -33 -119 -101 -143 -176 -22 -67 -33 -158 -46 -406
-11 -202 -11 -206 11 -265 41 -111 109 -190 184 -215 102 -34 265 43 314 149
12 25 27 53 34 61 59 75 158 66 352 -33 80 -40 141 -99 292 -282 106 -128 156
-177 225 -222 84 -54 264 -192 329 -252 95 -87 170 -189 243 -333 35 -70 86
-157 112 -195 72 -102 226 -250 449 -430 111 -88 261 -216 335 -284 484 -440
969 -807 1585 -1199 144 -91 300 -202 415 -294 206 -165 521 -470 542 -525 22
-60 58 -224 72 -331 16 -121 20 -195 36 -615 13 -309 29 -450 75 -645 44 -185
106 -515 144 -768 97 -634 94 -1108 -9 -1542 -60 -250 -140 -940 -210 -1800
l-20 -245 40 -163 c45 -180 52 -198 92 -259 39 -58 97 -84 201 -88 124 -5 297
-34 346 -57 67 -32 78 -68 53 -172 -11 -45 -23 -124 -27 -176 -9 -134 -33
-319 -56 -425 -10 -49 -19 -90 -19 -91 0 0 27 -20 60 -43 126 -89 226 -118
558 -167 329 -47 420 -74 582 -173 94 -57 171 -84 285 -100 206 -29 444 6 557
82 109 73 90 171 -51 277 -75 57 -288 168 -503 263 -188 83 -331 180 -459 308
-80 79 -104 111 -140 184 l-44 88 -3 171 c-3 126 2 221 17 361 11 105 23 233
26 285 8 126 26 250 90 640 86 522 125 836 125 1017 0 68 6 102 36 190 92 278
123 456 131 744 6 208 -4 358 -33 524 -14 82 -102 744 -130 979 -8 72 -18 254
-21 403 l-6 273 58 25 c117 52 168 58 415 49 554 -21 737 -5 1395 121 99 19
259 48 355 64 l175 29 34 -25 c18 -14 79 -71 136 -127 118 -117 154 -178 162
-278 3 -35 12 -75 19 -90 47 -91 -44 -166 -194 -159 -35 2 -37 26 -7 92 37 84
38 158 1 233 -36 73 -85 111 -142 111 -73 0 -113 -59 -129 -194 -8 -70 -34
-147 -106 -307 -105 -237 -123 -319 -109 -492 13 -172 54 -207 299 -262 74
-17 154 -39 179 -50 24 -11 49 -20 54 -20 20 0 375 203 452 258 91 66 257 236
327 335 62 88 83 147 108 294 24 144 67 269 161 473 40 85 100 216 135 290 72
156 128 321 145 433 18 111 8 313 -24 472 -14 72 -53 227 -87 345 -71 252
-119 436 -119 456 0 27 151 93 345 149 66 19 160 50 208 68 l89 32 198 195
c223 219 283 298 325 433 96 303 -14 745 -242 969 -102 101 -189 149 -320 174
-240 47 -613 -90 -759 -278 -21 -28 -71 -90 -110 -137 -38 -47 -129 -165 -201
-261 -155 -208 -202 -256 -266 -265 -67 -10 -123 19 -226 118 -328 315 -397
352 -791 422 -80 14 -217 44 -305 65 -241 60 -502 105 -750 130 -290 29 -983
54 -1086 40 -224 -32 -370 -168 -372 -347 -1 -102 18 -226 43 -280 15 -33 68
-93 164 -189 195 -195 242 -246 255 -271 19 -37 13 -114 -13 -170 -27 -56 -92
-113 -132 -113 -12 0 -68 -9 -124 -20 -137 -27 -290 -27 -367 0 -31 11 -82 39
-112 63 -31 23 -256 161 -501 306 -920 546 -1272 776 -1710 1116 -512 398
-771 565 -1710 1100 -272 155 -549 315 -615 355 -287 174 -369 211 -611 276
-76 20 -195 54 -264 75 -69 21 -172 47 -230 58 -58 11 -145 27 -195 36 -49 9
-130 30 -178 46 -49 16 -92 29 -96 29 -5 0 -33 -13 -62 -28z"/>
</g>
</svg>
